<?xml version="1.0" standalone="no"?>
<!DOCTYPE svg PUBLIC "-//W3C//DTD SVG 20010904//EN"
 "http://www.w3.org/TR/2001/REC-SVG-20010904/DTD/svg10.dtd">
<svg version="1.0" xmlns="http://www.w3.org/2000/svg"
 width="300.000000pt" height="300.000000pt" viewBox="0 0 300.000000 300.000000"
 preserveAspectRatio="xMidYMid meet">
<metadata>
Created by potrace 1.10, written by Peter Selinger 2001-2011
</metadata>
<g transform="translate(0.000000,300.000000) scale(0.100000,-0.100000)"
fill="#000000" stroke="none">
<path d="M1932 2843 c1 -37 1 -37 5 -5 l4 32 124 0 c89 0 125 -3 128 -12 3 -8
6 -6 6 5 1 15 -12 17 -134 17 l-135 0 2 -37z"/>
<path d="M2077 2803 c-4 -3 -7 -17 -7 -30 l0 -23 396 0 395 0 -3 28 -3 27
-386 3 c-212 1 -388 -1 -392 -5z"/>
<path d="M1843 2773 c31 -2 83 -2 115 0 31 2 5 3 -58 3 -63 0 -89 -1 -57 -3z"/>
<path d="M2071 2353 l-1 -393 398 0 397 0 -5 387 -5 388 -3 -372 c-2 -343 -4
-373 -20 -382 -24 -13 -698 -14 -723 -1 -11 7 -19 21 -19 37 l0 26 23 -21 c23
-22 28 -22 365 -22 l342 0 -2 348 -3 347 -2 -337 -3 -338 -343 0 -342 0 3 335
c2 316 -1 361 -24 323 -5 -7 -12 3 -20 28 -10 32 -12 -29 -13 -353z"/>
<path d="M2287 2703 c94 -2 252 -2 350 0 98 1 21 2 -172 2 -192 1 -273 -1
-178 -2z"/>
<path d="M1848 2693 c34 -2 90 -2 125 0 34 2 6 3 -63 3 -69 0 -97 -1 -62 -3z"/>
<path d="M182 2608 c-2 -44 0 -48 21 -47 16 1 17 3 5 6 -12 3 -18 17 -21 46
l-4 42 -1 -47z"/>
<path d="M800 2632 c-6 -2 -10 -124 -10 -338 l0 -334 60 0 c113 0 100 -13
-305 -325 -201 -154 -379 -288 -397 -297 -40 -22 -52 -42 -38 -67 5 -11 30
-159 55 -328 25 -169 50 -334 55 -365 5 -32 6 -73 3 -93 -5 -33 -8 -35 -43
-35 -38 0 -80 -32 -80 -61 0 -15 281 -17 1323 -11 l438 2 -2 345 c-1 190 -6
345 -11 345 -4 0 -9 -42 -9 -92 -1 -51 -4 -201 -8 -333 l-6 -240 -390 -3
c-214 -1 -400 0 -412 3 -14 3 -23 13 -23 24 0 25 -32 51 -64 51 -23 0 -25 2
-16 19 11 21 0 64 -19 76 -12 7 -14 459 -3 486 5 12 22 16 72 16 36 1 83 2
105 3 l40 2 -33 9 c-18 5 -74 8 -125 7 l-92 -3 -3 -260 -2 -260 -173 3 c-94 1
-178 4 -185 7 -7 3 -11 1 -8 -3 2 -4 -42 -7 -99 -7 l-104 0 -5 30 c-32 179
-96 662 -89 672 10 15 747 583 751 579 1 -2 -5 -19 -13 -39 -31 -75 -18 -122
59 -225 35 -45 42 -50 55 -38 9 7 71 56 138 109 l122 95 -56 67 c-62 76 -103
98 -174 94 -45 -3 -79 11 -79 32 0 5 201 9 455 9 l455 0 -1 288 c0 158 -4 296
-9 307 -5 12 -9 -97 -9 -266 -1 -224 -4 -289 -14 -297 -9 -8 -154 -13 -448
-16 -239 -2 -442 -5 -451 -7 -15 -3 -16 -5 -3 -19 8 -9 15 -22 15 -28 0 -13
23 -19 97 -25 57 -4 102 -29 141 -79 21 -24 22 -31 10 -45 -9 -12 -9 -15 -1
-9 7 4 13 3 13 -3 0 -15 -21 -25 -29 -14 -3 6 -23 -2 -45 -18 -21 -16 -36 -29
-32 -29 5 0 21 9 38 21 50 36 41 14 -13 -32 -95 -81 -122 -98 -140 -88 -30 15
-81 106 -74 129 7 21 7 21 28 3 22 -18 22 -18 6 2 -33 41 -39 62 -30 109 4 25
5 43 1 41 -14 -9 -34 54 -22 68 8 9 7 13 -6 14 -85 8 -113 17 -117 37 -3 11
-6 146 -7 299 l-3 277 553 0 c540 0 552 0 552 19 0 11 -4 22 -9 26 -10 6
-1083 13 -1101 7z m-232 -1039 c-269 -207 -373 -282 -381 -274 -8 8 -6 15 8
25 11 8 178 135 370 284 249 192 353 267 362 260 9 -7 -93 -91 -359 -295z
m-347 -684 c27 -184 52 -349 55 -366 5 -26 3 -33 -10 -33 -9 0 -16 1 -16 3 0
1 -25 164 -54 362 -38 255 -51 362 -43 367 6 4 13 5 15 4 2 -2 25 -154 53
-337z m679 -386 l0 -28 -295 0 -295 0 0 28 0 27 295 0 295 0 0 -27z m-540 -58
c0 -9 -9 -15 -25 -15 -16 0 -25 6 -25 15 0 9 9 15 25 15 16 0 25 -6 25 -15z
m-70 -16 c0 -5 6 -9 13 -9 22 0 54 -29 41 -37 -15 -10 -196 -4 -189 6 2 5 25
14 50 21 24 7 42 16 40 20 -6 10 16 19 33 12 6 -2 12 -8 12 -13z m688 -26 l-3
-28 -295 0 -295 0 -3 28 -3 27 301 0 301 0 -3 -27z"/>
<path d="M2620 2361 c0 -213 -1 -221 -20 -221 -19 0 -20 8 -22 177 l-3 178
-45 -1 -45 -1 -3 -177 -2 -176 -26 0 -25 0 2 128 2 127 -46 3 -47 3 0 -130 c0
-124 -1 -131 -20 -131 -18 0 -20 7 -20 81 l0 80 -47 -3 -46 -3 2 -77 2 -77
-28 -4 c-15 -2 112 -4 282 -4 171 0 295 2 277 4 l-33 4 1 217 2 217 -46 3 -46
3 0 -220z m55 -4 c0 -118 -4 -187 -10 -187 -6 0 -11 72 -13 191 -2 151 0 190
10 187 10 -4 13 -49 13 -191z m-128 -42 c2 -134 -4 -164 -29 -149 -4 3 -8 70
-8 150 0 133 1 145 18 142 15 -3 17 -19 19 -143z m-153 47 c2 -4 6 -50 7 -102
3 -83 1 -95 -14 -98 -15 -3 -17 8 -17 102 0 93 7 124 24 98z m-124 -148 c0
-32 -4 -44 -15 -44 -11 0 -15 11 -15 43 0 24 3 47 6 50 14 14 24 -6 24 -49z"/>
<path d="M828 2274 l-3 -274 55 1 55 2 -45 6 -45 6 -3 257 c-2 238 -1 257 15
260 15 3 14 5 -4 10 l-22 6 -3 -274z"/>
<path d="M1835 2540 l-30 -8 28 -1 27 -1 -2 -257 -3 -258 -445 -5 -445 -5 453
-3 452 -2 0 275 c0 151 -1 274 -2 274 -2 -1 -16 -5 -33 -9z"/>
<path d="M938 2533 c34 -2 90 -2 125 0 34 2 6 3 -63 3 -69 0 -97 -1 -62 -3z"/>
<path d="M1347 2533 c18 -2 50 -2 70 0 21 2 7 4 -32 4 -38 0 -55 -2 -38 -4z"/>
<path d="M462 2413 l1 -48 4 42 4 42 127 4 127 3 -132 2 -133 2 2 -47z"/>
<path d="M1212 2388 c-2 -63 -11 -83 -27 -58 -7 12 -25 4 -25 -11 0 -5 9 -9
20 -9 18 0 20 -7 20 -80 0 -73 -2 -80 -20 -80 -21 0 -27 -15 -9 -25 17 -11 37
26 44 80 3 28 5 95 3 150 -3 76 -4 84 -6 33z"/>
<path d="M1272 2333 c-2 -113 -4 -123 -21 -123 -14 0 -17 -6 -13 -25 5 -28 22
-34 22 -9 0 12 5 10 20 -9 11 -14 20 -30 20 -36 0 -6 5 -11 10 -11 6 0 10 7
10 15 0 27 20 16 21 -12 l1 -28 8 30 c10 40 10 163 0 195 l-8 25 -1 -27 c-1
-30 -21 -39 -21 -10 -1 16 -1 16 -14 0 -7 -10 -16 -18 -19 -18 -3 0 -8 37 -10
83 -2 66 -3 59 -5 -40z m68 -113 c0 -55 -1 -58 -25 -56 -23 1 -25 4 -25 56 0
52 2 55 25 56 24 2 25 -1 25 -56z"/>
<path d="M1620 2384 c0 -55 -2 -65 -14 -55 -7 6 -21 9 -30 5 -13 -5 -16 1 -16
31 0 21 -4 34 -10 30 -5 -3 -10 -39 -10 -80 0 -66 -2 -74 -20 -77 -15 -2 -17
-7 -10 -18 9 -13 11 -13 20 0 7 11 10 4 10 -27 0 -34 5 -46 24 -58 20 -14 28
-14 45 -3 20 12 21 22 21 165 0 84 -2 153 -5 153 -3 0 -5 -30 -5 -66z m-10
-154 c0 -79 0 -80 -25 -80 -25 0 -25 1 -25 80 0 79 0 80 25 80 25 0 25 -1 25
-80z"/>
<path d="M1683 2330 c0 -69 3 -138 7 -155 10 -40 11 80 1 195 l-8 85 0 -125z"/>
<path d="M1483 2320 c0 -47 2 -66 4 -42 2 23 2 61 0 85 -2 23 -4 4 -4 -43z"/>
<path d="M1710 2325 c-11 -13 -9 -15 14 -15 26 0 26 0 27 -82 1 -75 2 -79 11
-43 12 52 2 118 -21 139 -16 15 -19 15 -31 1z"/>
<path d="M1401 2221 c-1 -120 15 -162 21 -54 4 90 -1 163 -12 163 -4 0 -9 -49
-9 -109z"/>
<path d="M140 2295 l0 -25 251 0 250 0 -3 23 -3 22 -247 3 -248 2 0 -25z"/>
<path d="M1136 2239 c3 -46 8 -86 10 -88 2 -2 4 32 4 77 0 47 -5 84 -11 87 -7
5 -8 -18 -3 -76z"/>
<path d="M1021 2294 c-11 -13 -15 -14 -22 -2 -5 7 -8 -26 -7 -82 l1 -95 10 81
c9 79 10 81 37 81 25 0 27 -3 26 -39 -1 -35 -3 -38 -30 -38 -29 0 -29 -1 -13
-17 17 -17 20 -17 47 14 20 22 31 28 39 20 8 -8 11 -6 11 6 0 10 -8 17 -21 17
-11 0 -18 4 -15 9 9 14 -4 41 -20 41 -8 0 -14 5 -14 10 0 14 -13 12 -29 -6z"/>
<path d="M866 2264 c-10 -25 -7 -92 4 -99 6 -4 10 17 10 54 0 62 -3 73 -14 45z"/>
<path d="M933 2220 c0 -36 2 -50 4 -32 2 17 2 47 0 65 -2 17 -4 3 -4 -33z"/>
<path d="M140 2001 l0 -261 250 0 250 0 0 256 c0 190 -3 255 -12 252 -17 -6
-19 -26 -21 -248 -1 -113 -6 -211 -10 -217 -10 -16 -393 -18 -417 -3 -21 13
-5 23 18 11 15 -8 23 -7 32 4 11 13 6 15 -31 16 -24 1 -34 4 -21 6 28 6 31 43
2 43 -17 0 -16 3 8 28 l27 27 -28 3 c-28 3 -28 4 -11 29 15 24 15 25 0 20 -18
-7 -21 9 -6 33 5 9 5 19 -1 26 -7 8 -6 14 1 19 6 4 7 13 2 23 -9 19 -9 73 1
88 3 6 2 16 -4 24 -5 8 -9 27 -9 42 0 15 -4 30 -10 33 -7 4 -10 -83 -10 -254z"/>
<path d="M1642 2188 c2 -13 8 -23 13 -23 6 0 11 10 13 23 2 15 -2 22 -13 22
-11 0 -15 -7 -13 -22z"/>
<path d="M499 2172 c-7 -15 -24 -44 -36 -64 -28 -46 -28 -48 -2 -48 16 0 19 3
11 13 -8 9 -4 24 14 55 14 23 27 42 29 42 12 0 46 -74 42 -90 -4 -15 0 -20 14
-20 10 0 19 2 19 4 0 2 -17 33 -38 70 l-39 65 -14 -27z"/>
<path d="M890 2146 c0 -14 5 -26 10 -26 6 0 10 7 10 15 0 8 0 18 1 22 0 4 -4
9 -10 11 -6 2 -11 -8 -11 -22z"/>
<path d="M492 1943 l-2 -123 25 0 25 0 -2 123 -2 122 -3 -117 c-3 -95 -7 -118
-18 -118 -11 0 -15 23 -18 118 l-3 117 -2 -122z"/>
<path d="M220 1912 c0 -5 9 -17 21 -28 17 -16 22 -16 29 -4 6 8 8 20 7 25 -4
13 -57 19 -57 7z"/>
<path d="M2260 1897 l0 -23 220 0 c215 1 221 2 218 21 -3 19 -12 20 -220 23
l-218 2 0 -23z"/>
<path d="M1740 1891 c-73 -22 -131 -74 -170 -151 -11 -22 -28 -45 -38 -51 -15
-9 -17 -21 -11 -78 4 -36 11 -78 17 -93 9 -22 8 -30 -5 -43 -18 -18 -11 -30
12 -22 11 5 15 22 15 75 l0 68 61 40 c33 21 65 47 70 57 5 9 14 17 20 17 5 0
3 -13 -6 -30 -10 -18 -11 -30 -5 -30 15 0 71 29 93 48 25 22 21 1 -8 -42 -28
-42 -31 -56 -11 -56 8 0 23 -3 33 -6 13 -4 12 -1 -6 13 l-23 20 31 13 c17 7
41 26 53 42 l21 30 -22 -7 c-13 -4 -28 -2 -36 5 -10 8 -30 10 -57 6 -24 -3
-49 -2 -57 3 -11 7 -30 -2 -69 -30 -85 -60 -91 -53 -36 39 57 96 115 131 212
129 107 -3 176 -72 188 -189 6 -51 58 -208 90 -271 23 -43 14 -125 -18 -174
-20 -31 -37 -42 -82 -56 -99 -32 -91 -39 -91 87 0 96 3 117 23 153 19 38 21
49 13 95 -11 65 -41 170 -52 182 -18 20 -22 -50 -5 -94 29 -75 29 -77 4 -100
l-23 -22 33 4 c39 5 39 2 7 -42 -41 -55 -48 -99 -29 -168 21 -75 14 -105 -32
-136 l-37 -25 34 -3 34 -3 3 -314 2 -313 22 5 c12 4 67 16 122 27 89 19 101
24 103 43 1 12 11 63 21 112 19 87 19 122 1 94 -5 -8 -9 -27 -9 -44 0 -33 -22
-111 -40 -145 -9 -16 -18 -21 -36 -17 -14 2 -28 -1 -32 -8 -4 -7 -33 -17 -64
-22 l-58 -10 0 153 c0 93 -4 155 -10 159 -6 4 -3 16 10 32 26 33 25 68 -1 101
-12 16 -16 28 -10 30 14 5 14 75 0 89 -6 6 -8 16 -4 22 10 16 76 48 126 61 55
14 68 25 97 77 37 69 31 130 -28 281 -33 86 -50 143 -50 173 0 143 -158 253
-300 210z"/>
<path d="M2041 1848 c2 -30 2 -31 6 -6 4 27 5 27 91 31 l87 3 -92 2 -93 2 1
-32z"/>
<path d="M230 1840 c0 -13 7 -20 20 -20 13 0 20 7 20 20 0 13 -7 20 -20 20
-13 0 -20 -7 -20 -20z"/>
<path d="M2260 1635 c0 -143 4 -225 10 -225 6 0 10 5 10 10 0 6 7 10 16 10 14
0 14 3 4 15 -10 12 -13 64 -12 198 0 186 -2 217 -19 217 -5 0 -9 -93 -9 -225z"/>
<path d="M2678 1823 c0 -21 -2 -94 -3 -163 0 -69 -2 -146 -3 -172 l-2 -48 -67
-1 c-38 0 -86 -3 -108 -8 l-40 -7 49 -7 c27 -4 82 -7 122 -7 l74 0 1 85 c2
276 -1 365 -11 365 -5 0 -11 -17 -12 -37z"/>
<path d="M2098 1793 c23 -2 59 -2 80 0 20 2 1 4 -43 4 -44 0 -61 -2 -37 -4z"/>
<path d="M2532 1724 c-18 -36 -29 -63 -24 -60 5 3 20 28 33 56 13 27 29 50 36
50 6 0 21 -12 33 -27 12 -16 18 -21 14 -13 -9 19 -46 60 -54 60 -3 0 -20 -30
-38 -66z"/>
<path d="M2316 1698 c-15 -58 -2 -121 19 -88 3 6 2 10 -3 10 -13 0 -13 68 0
76 6 4 13 2 17 -3 3 -6 16 -13 28 -17 13 -4 29 -13 36 -20 7 -8 28 -17 47 -21
30 -7 32 -6 19 8 -17 16 -133 77 -148 77 -5 0 -11 -10 -15 -22z"/>
<path d="M2637 1664 c6 -68 11 -77 12 -24 0 25 -3 51 -8 59 -5 8 -7 -5 -4 -35z"/>
<path d="M2778 1663 c29 -4 32 -7 32 -38 0 -31 -3 -34 -32 -38 -32 -4 -32 -4
5 -5 l37 -2 0 45 0 45 -37 -2 c-37 -1 -37 -1 -5 -5z"/>
<path d="M2320 1582 c0 -20 72 -90 100 -96 l25 -6 -26 13 c-37 17 -59 37 -81
72 -10 17 -18 24 -18 17z"/>
<path d="M2625 1570 c-3 -11 -23 -34 -43 -51 -20 -17 -27 -26 -16 -20 24 12
74 67 74 82 0 16 -8 10 -15 -11z"/>
<path d="M1612 1518 c2 -13 10 -23 18 -23 8 0 16 10 18 23 3 17 -2 22 -18 22
-16 0 -21 -5 -18 -22z"/>
<path d="M1756 1523 c-11 -27 13 -42 30 -19 19 27 18 36 -5 36 -10 0 -22 -8
-25 -17z"/>
<path d="M1672 1493 c-22 -62 -20 -78 8 -80 25 -3 25 -3 3 7 -27 11 -27 12 -7
51 8 17 14 37 12 45 -2 9 -9 -2 -16 -23z"/>
<path d="M874 1473 l128 -4 -4 -39 c-2 -22 0 -40 4 -40 5 0 8 20 8 45 l0 45
-132 -2 -133 -2 129 -3z"/>
<path d="M1165 1401 c-49 -22 -89 -67 -105 -117 -10 -29 -10 -52 0 -106 16
-91 28 -95 18 -5 -9 90 2 134 44 173 53 49 76 54 241 54 84 0 159 5 167 10 10
6 -42 10 -155 10 -143 0 -176 -3 -210 -19z"/>
<path d="M1771 1400 c-13 -11 -37 -21 -55 -21 -29 -2 -29 -2 -4 -6 28 -4 88
21 88 37 0 13 -1 13 -29 -10z"/>
<path d="M2165 1410 c3 -5 24 -10 46 -10 24 0 38 4 34 10 -3 6 -24 10 -46 10
-24 0 -38 -4 -34 -10z"/>
<path d="M888 1393 c17 -2 47 -2 65 0 17 2 3 4 -33 4 -36 0 -50 -2 -32 -4z"/>
<path d="M1546 1378 c-9 -37 -8 -43 24 -83 17 -21 30 -41 30 -46 0 -4 -12 -22
-26 -39 l-27 -31 24 5 c13 3 44 7 67 11 49 6 72 24 72 53 0 13 -9 21 -29 25
-39 8 -88 51 -103 92 -14 41 -23 44 -32 13z"/>
<path d="M2525 1345 c38 -51 50 -97 41 -155 -7 -47 9 -54 18 -9 15 76 0 133
-49 182 -43 42 -49 32 -10 -18z"/>
<path d="M400 1255 l0 -45 125 0 125 0 0 45 0 45 -125 0 -125 0 0 -45z m240 0
l0 -35 -115 0 -115 0 0 35 0 35 115 0 115 0 0 -35z"/>
<path d="M1815 1229 c-16 -5 -42 -6 -57 -3 -17 3 -28 1 -28 -5 0 -6 3 -11 8
-12 4 0 16 -2 27 -4 23 -5 82 12 90 26 7 11 0 10 -40 -2z"/>
<path d="M2663 1208 c-4 -7 -8 -27 -8 -45 l0 -31 28 16 c27 16 36 32 17 32 -5
0 -10 6 -10 14 0 20 -17 29 -27 14z"/>
<path d="M2412 1189 c-11 -18 -11 -23 -1 -30 10 -6 10 -10 0 -23 -17 -21 -6
-36 27 -36 20 0 30 8 40 27 14 32 15 43 4 43 -5 0 -14 -11 -20 -25 -6 -14 -18
-25 -27 -25 -16 0 -21 16 -6 22 13 4 18 60 6 64 -6 2 -16 -6 -23 -17z"/>
<path d="M242 1153 c1 -37 1 -37 5 -5 l4 32 115 0 114 0 0 -35 0 -34 -97 -4
-98 -3 103 -2 102 -2 0 45 0 45 -125 0 -125 0 2 -37z"/>
<path d="M2610 1160 c0 -5 5 -21 12 -35 8 -18 8 -29 1 -36 -7 -7 -12 -1 -16
20 -4 17 -11 31 -17 31 -14 0 -12 -31 5 -60 17 -29 19 -50 6 -50 -5 0 -11 10
-13 22 -2 12 -9 24 -17 26 -15 5 -13 -7 11 -66 8 -22 9 -35 3 -40 -17 -11 -47
-63 -41 -69 11 -12 44 29 50 61 4 22 15 37 31 44 27 12 36 48 10 38 -18 -7
-18 -4 -3 29 7 16 19 25 33 25 24 0 49 22 38 33 -3 4 -16 0 -29 -8 -21 -14
-23 -13 -33 15 -9 28 -31 42 -31 20z"/>
<path d="M1468 1147 c-7 -7 -24 -21 -38 -30 -23 -16 -16 -17 175 -15 l200 2
-172 3 c-95 2 -173 7 -173 11 0 4 12 15 28 24 19 12 22 18 10 18 -9 0 -23 -6
-30 -13z"/>
<path d="M2120 1155 c0 -4 17 -23 38 -43 21 -20 45 -47 53 -59 11 -15 19 -19
29 -12 13 7 13 9 -1 9 -8 0 -29 20 -46 44 -28 40 -73 77 -73 61z"/>
<path d="M2495 1104 c-19 -46 -14 -53 14 -18 23 30 26 40 11 49 -5 3 -16 -11
-25 -31z"/>
<path d="M2520 1068 c-1 -29 -17 -41 -40 -28 -37 20 -36 1 3 -34 20 -19 37
-41 37 -50 0 -22 -9 -20 -37 6 -13 12 -26 18 -30 14 -5 -4 9 -21 30 -38 20
-16 37 -37 37 -45 0 -8 5 -11 10 -8 7 4 6 13 -1 26 -8 16 -5 26 16 50 14 17
23 35 19 40 -8 14 -24 11 -24 -6 0 -8 -5 -15 -11 -15 -7 0 -9 10 -5 25 3 14 9
36 12 50 4 15 2 25 -5 25 -6 0 -11 -6 -11 -12z"/>
<path d="M2854 1045 c-3 -13 -12 -29 -19 -35 -9 -8 -11 -4 -7 15 2 14 0 25 -6
25 -13 0 -23 -26 -16 -45 3 -8 2 -20 -2 -27 -6 -9 -10 -4 -14 16 -3 16 -11 31
-19 34 -11 4 -13 -5 -7 -46 4 -34 3 -53 -5 -58 -9 -5 -10 0 -5 19 3 15 1 29
-5 33 -18 11 -30 -18 -25 -58 2 -21 0 -40 -4 -43 -5 -3 -10 6 -12 20 -2 14 -7
24 -13 23 -11 -3 -11 -16 0 -67 6 -27 5 -33 -6 -29 -8 2 -16 15 -17 29 -2 13
-8 29 -13 35 -5 6 -7 19 -3 28 4 11 1 16 -10 16 -18 0 -22 -36 -5 -42 16 -5 1
-30 -37 -61 l-34 -29 0 25 c0 17 7 28 20 32 13 4 20 15 20 30 0 37 -17 39 -41
5 -13 -16 -26 -30 -29 -30 -4 0 -24 16 -45 35 -38 36 -53 40 -41 10 3 -9 10
-13 16 -10 6 3 13 -2 17 -11 3 -10 15 -26 25 -36 21 -21 24 -44 6 -51 -9 -3
-7 -10 7 -21 23 -18 45 -22 27 -4 -14 14 -16 68 -2 68 6 0 10 -14 10 -31 0
-17 4 -38 9 -48 7 -13 3 -25 -21 -50 -28 -30 -29 -34 -17 -64 19 -48 29 -57
62 -57 59 0 158 22 164 37 9 24 -3 25 -72 4 -80 -25 -75 -25 -75 -6 0 9 9 15
25 15 29 0 132 37 140 51 15 23 -31 18 -91 -10 -59 -28 -65 -29 -53 -10 8 11
38 28 67 38 56 19 80 36 69 48 -4 3 -27 -3 -51 -15 -49 -25 -59 -27 -54 -11 2
6 28 20 58 32 32 13 55 28 55 37 0 19 -31 14 -66 -11 -14 -10 -29 -16 -31 -13
-3 2 -11 -9 -18 -25 -14 -36 -40 -61 -40 -40 0 10 -3 10 -12 1 -10 -10 -10
-15 1 -21 9 -6 11 -16 7 -27 -7 -18 -8 -18 -20 -1 -7 9 -16 17 -20 17 -12 0
-6 -23 10 -41 9 -10 13 -23 9 -29 -10 -16 -35 7 -35 34 0 16 -3 18 -9 7 -7
-11 -9 -11 -13 0 -8 22 42 89 66 89 25 1 56 22 56 39 0 16 -16 14 -46 -5 -39
-26 -39 -10 0 29 l35 35 17 -26 c15 -23 18 -24 29 -9 7 9 19 17 28 17 22 0 67
21 67 32 0 12 -34 10 -48 -4 -17 -17 -25 -3 -11 19 6 11 25 24 42 29 34 10 49
34 21 34 -16 0 -16 1 1 20 10 11 28 19 39 19 36 -3 56 1 56 11 0 6 -12 10 -27
11 -25 0 -26 1 -8 9 11 5 28 11 37 14 14 4 15 9 5 30 -15 33 -35 33 -43 1z"/>
<path d="M2616 958 c-9 -12 -14 -24 -12 -26 7 -7 44 17 50 33 9 23 -21 18 -38
-7z"/>
<path d="M2333 885 c7 -14 21 -25 31 -25 16 0 15 3 -8 25 -34 31 -37 31 -23 0z"/>
<path d="M460 746 c0 -79 4 -137 10 -141 6 -4 10 37 10 116 0 101 2 120 14
110 11 -9 12 -7 9 12 -5 23 -4 23 89 19 51 -2 95 -6 97 -8 2 -1 4 -49 4 -106
l1 -103 3 88 c2 50 8 87 14 87 25 0 67 -32 78 -59 22 -52 -6 -102 -71 -128
-22 -9 -38 -23 -41 -36 l-6 -22 19 23 c10 12 27 22 38 22 31 0 71 38 83 79 9
32 8 44 -6 74 -15 32 -64 67 -94 67 -6 0 -11 9 -11 20 0 19 -7 20 -120 20
l-120 0 0 -134z"/>
<path d="M2356 781 c23 -20 124 -70 124 -62 0 6 -6 13 -12 18 -20 12 -122 53
-112 44z"/>
<path d="M1300 752 c-42 -42 -42 -90 1 -126 37 -31 77 -33 112 -6 68 54 43
142 -46 157 -31 5 -40 1 -67 -25z m105 -17 c14 -13 25 -33 25 -45 0 -26 -43
-70 -68 -70 -34 0 -65 34 -65 70 0 22 7 39 22 52 31 25 57 23 86 -7z"/>
<path d="M2485 760 c-4 -6 -5 -12 -4 -13 2 -2 11 -8 21 -15 23 -18 31 2 9 22
-13 12 -21 14 -26 6z"/>
<path d="M2363 723 c0 -7 10 -13 21 -13 12 0 45 -13 73 -29 42 -23 51 -25 43
-11 -5 10 -22 21 -37 24 -14 4 -43 15 -63 25 -28 14 -37 15 -37 4z"/>
<path d="M2269 683 c5 -10 21 -30 36 -45 14 -15 25 -29 25 -30 -1 -2 2 -11 5
-20 8 -20 59 -25 70 -8 3 6 16 10 28 11 16 1 14 3 -9 8 -17 4 -36 11 -42 15
-8 4 -12 0 -12 -11 0 -13 -12 -6 -45 27 -24 25 -44 51 -45 58 0 6 -5 12 -10
12 -7 0 -7 -6 -1 -17z"/>
<path d="M2376 661 c8 -7 120 -41 137 -41 4 0 7 5 7 10 0 6 -13 10 -29 10 -16
0 -48 7 -71 15 -49 17 -58 19 -44 6z"/>
<path d="M2716 583 c-3 -4 -1 -12 4 -18 17 -21 -1 -71 -42 -116 -39 -43 -42
-44 -102 -44 -58 0 -64 2 -104 39 -25 23 -47 55 -54 78 -13 43 -27 34 -20 -13
5 -33 63 -99 87 -99 8 0 15 -7 15 -15 0 -12 16 -15 80 -15 64 0 80 3 80 15 0
8 4 15 9 15 5 0 23 14 40 31 32 31 56 96 45 122 -6 17 -29 29 -38 20z"/>
<path d="M2225 560 c-22 -4 -51 -12 -65 -18 -41 -18 4 -14 90 7 73 18 56 26
-25 11z"/>
<path d="M1880 410 l0 -30 74 0 c41 0 77 4 80 8 3 5 2 18 -1 30 -5 20 -12 22
-79 22 l-74 0 0 -30z m112 4 c-3 -10 -82 -12 -82 -2 0 10 22 15 55 13 17 -1
29 -6 27 -11z"/>
<path d="M2768 373 c46 -2 118 -2 160 0 42 1 5 3 -83 3 -88 0 -123 -2 -77 -3z"/>
</g>
</svg>
