<?xml version="1.0" standalone="no"?>
<!DOCTYPE svg PUBLIC "-//W3C//DTD SVG 20010904//EN"
 "http://www.w3.org/TR/2001/REC-SVG-20010904/DTD/svg10.dtd">
<svg version="1.0" xmlns="http://www.w3.org/2000/svg"
 width="300.000000pt" height="300.000000pt" viewBox="0 0 300.000000 300.000000"
 preserveAspectRatio="xMidYMid meet">
<metadata>
Created by potrace 1.10, written by Peter Selinger 2001-2011
</metadata>
<g transform="translate(0.000000,300.000000) scale(0.100000,-0.100000)"
fill="#000000" stroke="none">
<path d="M2018 2549 c-16 -16 -28 -34 -28 -40 0 -6 14 -23 31 -39 35 -32 31
-53 -8 -44 -22 6 -25 4 -20 -10 4 -10 7 -20 7 -22 0 -2 7 -4 15 -4 9 0 18 -7
21 -15 8 -19 24 -20 24 -1 0 7 11 21 25 30 33 22 32 50 -5 76 -16 12 -30 26
-30 32 0 6 12 8 30 5 25 -5 30 -3 30 13 0 10 -9 22 -20 25 -11 3 -20 11 -20
16 0 18 -25 7 -52 -22z"/>
<path d="M1405 2199 c-388 -12 -384 -17 10 -12 193 2 365 6 383 9 l33 5 -3
-113 -3 -113 -35 3 c-26 1 -31 0 -20 -8 21 -14 57 -12 63 3 4 9 8 8 17 -3 10
-13 11 -12 6 3 -3 10 -6 68 -6 128 l0 109 -92 -2 c-51 0 -210 -5 -353 -9z"/>
<path d="M2079 2081 c-23 -18 -24 -25 -21 -109 l3 -91 -36 10 c-53 15 -122 46
-129 58 -12 19 -26 12 -26 -14 0 -33 64 -96 121 -120 50 -21 48 -11 52 -180 1
-49 6 -96 10 -102 11 -17 67 -17 67 0 0 7 -11 13 -27 12 l-28 0 3 70 c2 39 -1
83 -7 98 -6 15 -12 48 -13 72 -1 39 -5 45 -30 54 -43 15 -34 24 18 18 38 -4
50 -1 67 16 l20 20 -23 17 c-17 13 -25 32 -30 69 -3 28 -5 51 -3 51 2 0 17 -9
32 -21 16 -12 37 -19 47 -17 18 5 18 5 -1 13 -11 4 -28 15 -37 23 -22 19 -7
42 28 42 27 0 49 -29 59 -78 4 -21 22 -45 50 -69 55 -46 69 -78 59 -135 -4
-24 -9 -35 -12 -25 -5 23 -22 22 -22 -2 0 -11 -4 -22 -9 -25 -5 -4 -12 -29
-16 -57 -6 -44 -8 -48 -20 -32 -11 15 -14 7 -17 -60 -2 -59 0 -78 11 -82 19
-7 20 -6 33 61 16 89 13 84 49 74 17 -5 34 -12 37 -14 3 -3 -3 -43 -12 -88
-16 -85 -20 -115 -11 -106 3 2 12 42 20 89 9 46 19 92 22 103 3 12 1 16 -6 12
-6 -4 -11 -3 -11 3 0 5 -18 12 -40 16 -29 5 -40 12 -40 25 0 10 7 20 15 24 24
9 55 68 55 104 l0 32 120 0 120 0 0 -430 0 -430 -125 0 c-103 0 -126 3 -130
15 -3 8 -7 22 -10 31 -3 9 -8 14 -12 10 -3 -3 -1 -23 5 -43 25 -83 59 -308 49
-321 -8 -10 -19 9 -44 75 -46 119 -84 205 -96 221 -5 6 -18 12 -28 12 -13 0
-19 9 -21 38 -2 21 -7 -5 -12 -60 -10 -127 -25 -139 -40 -33 -2 17 -2 -42 0
-130 2 -88 1 -151 -2 -140 -4 11 -11 26 -16 33 -6 7 -8 39 -5 80 4 37 2 85 -2
107 -7 32 -8 20 -8 -55 0 -53 -3 -106 -7 -118 -6 -16 -3 -22 8 -22 10 0 16 -9
16 -24 0 -40 12 -86 21 -80 5 3 9 -2 9 -11 0 -9 -4 -13 -10 -10 -13 8 -90 -13
-90 -25 0 -12 80 -13 98 -2 7 5 17 35 22 68 11 72 30 356 23 367 -2 4 4 7 14
7 14 0 34 -44 96 -209 63 -166 83 -210 99 -214 20 -6 20 -3 14 62 -7 77 -41
280 -55 329 l-10 32 95 0 94 0 0 -205 c0 -192 1 -205 18 -205 17 0 19 15 25
202 4 114 11 204 17 208 5 3 11 85 12 195 l3 190 54 -319 c64 -378 59 -356 82
-356 11 0 19 2 19 4 0 2 -25 174 -55 382 -31 209 -61 415 -68 459 -6 44 -13
73 -14 65 -2 -9 23 -207 57 -441 58 -409 65 -467 56 -458 -2 2 -34 177 -71
388 -62 357 -67 394 -65 515 1 72 2 159 1 194 l-1 62 -125 0 c-90 0 -125 3
-125 12 0 6 -23 33 -51 59 -38 35 -53 57 -60 90 -6 24 -20 54 -31 67 -27 28
-77 29 -109 3z m461 -1305 c0 -119 -4 -197 -10 -201 -7 -4 -10 63 -10 194 0
127 4 201 10 201 6 0 10 -71 10 -194z"/>
<path d="M957 1685 c2 -197 6 -361 8 -363 2 -2 202 -1 444 3 l441 8 0 308 c0
199 -4 309 -10 309 -6 0 -10 -106 -10 -299 l0 -298 -82 -6 c-46 -4 -238 -7
-428 -8 l-345 -2 -7 274 c-4 151 -9 310 -11 354 -3 44 -3 -82 0 -280z"/>
<path d="M1719 1973 c-13 -21 -39 -55 -58 -76 l-34 -38 28 7 c25 6 27 5 20
-12 -4 -10 -28 -72 -52 -136 l-45 -116 -51 66 c-28 37 -67 88 -87 113 l-36 46
-108 -164 -109 -163 -59 106 c-39 69 -63 103 -70 96 -6 -6 15 -52 60 -131 l69
-121 104 157 c56 87 106 162 109 166 4 4 44 -41 90 -100 46 -59 86 -112 90
-116 4 -4 33 63 65 149 l58 156 19 -23 19 -24 -6 45 c-4 25 -1 67 5 94 6 27 9
51 6 53 -2 2 -14 -13 -27 -34z"/>
<path d="M2157 1951 c-10 -48 -9 -91 2 -91 5 0 8 11 5 24 -5 30 11 42 34 25
16 -13 16 -12 0 6 -9 11 -21 31 -26 45 -9 23 -9 23 -15 -9z"/>
<path d="M2102 1799 c-21 -89 -10 -142 18 -90 12 23 14 141 2 141 -5 0 -14
-23 -20 -51z"/>
<path d="M2173 1704 c-10 -21 -9 -24 8 -24 20 0 24 16 11 37 -5 8 -11 3 -19
-13z"/>
<path d="M592 1644 c-40 -28 -15 -144 31 -144 11 0 15 -4 11 -12 -4 -7 -3 -8
4 -4 6 4 21 2 32 -4 13 -7 20 -7 20 0 0 5 -6 10 -14 10 -8 0 -21 7 -30 15 -8
9 -19 17 -23 18 -8 2 -7 24 2 63 4 18 12 21 45 20 43 -1 66 14 57 38 -9 22
-104 22 -135 0z"/>
<path d="M1992 1345 c-12 -165 -25 -317 -27 -337 -4 -32 -2 -38 13 -38 18 0
19 6 -11 -352 -5 -55 -4 -58 18 -58 26 0 25 -5 50 248 8 85 17 158 21 163 3 5
-13 9 -35 9 -32 0 -41 4 -41 17 0 10 9 148 21 306 11 159 19 301 17 315 -2 15
-13 -108 -26 -273z m45 -397 c-3 -13 -13 -103 -23 -200 -10 -98 -21 -178 -26
-178 -10 0 -10 19 2 181 15 198 19 219 37 219 11 0 14 -7 10 -22z"/>
<path d="M720 1553 c0 -24 -5 -43 -12 -46 -7 -2 -10 -8 -6 -12 21 -22 47 51
29 82 -8 15 -10 10 -11 -24z"/>
<path d="M2485 1498 c-15 -23 -41 -64 -57 -90 l-30 -48 -44 26 c-39 23 -44 24
-44 8 0 -13 -3 -15 -11 -7 -9 9 -18 4 -35 -17 -20 -23 -24 -39 -24 -96 0 -75
12 -131 37 -181 l17 -32 107 -3 108 -3 3 240 c2 132 2 242 1 243 -1 2 -14 -16
-28 -40z m-5 -242 l0 -165 -86 -3 c-55 -2 -89 1 -95 8 -16 20 -39 123 -39 178
0 72 40 108 91 80 43 -24 69 -14 109 45 8 11 16 21 17 21 2 0 3 -74 3 -164z"/>
<path d="M2046 1464 c-3 -26 -6 -104 -7 -173 0 -69 -4 -150 -8 -178 -6 -41 -4
-53 6 -53 7 0 13 -10 13 -22 0 -13 5 -30 11 -38 8 -11 9 -6 4 20 -11 57 -16
374 -7 400 6 16 11 -33 17 -151 4 -96 11 -201 15 -234 6 -45 7 -29 4 60 l-3
120 25 -79 c14 -43 27 -76 28 -75 2 2 -7 47 -20 99 -14 52 -32 152 -41 223 -9
70 -20 127 -24 127 -3 0 -9 -21 -13 -46z"/>
<path d="M537 1456 c-50 -14 -99 -53 -123 -98 -8 -15 -14 -53 -14 -86 0 -52
-3 -61 -30 -87 -17 -16 -35 -46 -41 -67 -5 -21 -14 -38 -20 -38 -6 0 -3 -10 5
-22 9 -12 16 -34 16 -48 0 -33 43 -120 74 -149 20 -19 23 -28 16 -52 -5 -17
-6 -37 -3 -45 3 -8 0 -84 -7 -170 -11 -140 -10 -177 5 -162 3 3 14 79 25 169
27 222 23 210 60 196 20 -7 28 -17 25 -27 -18 -63 -37 -152 -32 -157 16 -15
34 12 55 80 l22 76 102 3 103 3 -104 5 c-79 4 -108 2 -118 -8 -11 -11 -13 -10
-13 8 0 15 -8 22 -30 26 -16 4 -34 11 -39 18 -13 16 -17 49 -8 64 13 19 -4 14
-23 -8 -21 -24 -25 -20 -64 56 -20 39 -27 68 -29 120 -1 51 1 68 11 67 7 -2
12 8 12 26 0 16 6 34 14 40 11 9 16 1 27 -46 l14 -57 105 -1 c58 -1 112 -4
120 -8 44 -17 128 -24 238 -20 l122 6 9 31 c8 26 9 27 10 8 1 -18 6 -23 23
-20 32 5 33 26 3 40 -29 13 -29 13 -9 132 4 23 3 37 -2 34 -5 -3 -61 -9 -124
-12 -119 -7 -130 -11 -130 -55 0 -28 6 -26 12 4 4 26 26 34 63 23 17 -5 48 -8
70 -7 68 2 66 3 64 -49 -1 -27 1 -53 4 -59 13 -20 -4 -41 -36 -47 -18 -3 -72
-8 -122 -12 -74 -5 -87 -4 -78 7 6 8 14 37 16 64 l6 50 -11 -54 -11 -54 -81 6
c-45 3 -100 12 -124 20 -28 10 -54 12 -77 7 -19 -4 -37 -5 -40 0 -2 4 -7 50
-11 101 -5 77 -4 101 9 126 39 74 114 100 183 62 36 -19 46 -21 69 -11 14 7
33 12 42 12 21 0 51 -36 74 -87 10 -24 25 -43 33 -43 12 0 11 9 -5 53 -33 88
-114 143 -145 98 -20 -29 -36 -27 -67 9 -31 34 -26 33 -90 16z"/>
<path d="M2162 1401 c15 -3 37 -14 48 -23 19 -17 20 -17 20 2 0 12 -5 17 -14
14 -8 -3 -17 -1 -21 5 -3 6 -18 10 -33 10 l-27 -1 27 -7z"/>
<path d="M1262 1275 c0 -24 13 -41 62 -85 l61 -54 -47 49 c-25 28 -53 66 -61
85 l-15 35 0 -30z"/>
<path d="M584 1241 c19 -36 57 -64 69 -52 5 5 6 15 2 21 -6 9 -10 9 -16 -1 -7
-11 -9 -11 -9 2 0 8 -14 25 -31 38 l-30 23 15 -31z"/>
<path d="M1215 1158 c-20 -24 -19 -28 8 -22 44 10 51 9 57 -16 5 -22 7 -23 13
-7 15 40 8 55 -28 59 -24 3 -39 -1 -50 -14z"/>
<path d="M1102 1085 c-11 -13 -4 -15 55 -14 37 1 55 4 38 6 -16 3 -34 9 -39
14 -14 13 -39 10 -54 -6z"/>
<path d="M1420 1080 c-80 -3 -139 -7 -131 -8 11 -2 11 -5 1 -17 -11 -13 -8
-15 19 -15 17 0 31 5 31 10 0 6 17 10 38 10 34 -1 35 -2 19 -15 -11 -7 -25
-11 -33 -8 -19 7 -19 19 23 -314 27 -217 40 -293 50 -293 10 0 12 11 8 38 -3
20 -12 134 -20 252 -8 118 -18 239 -21 268 l-5 52 74 0 c59 0 77 4 90 18 18
20 22 33 10 30 -5 -1 -73 -5 -153 -8z"/>
<path d="M499 1035 c0 0 -1 -20 -2 -44 -1 -28 3 -46 11 -49 7 -2 12 5 12 15 0
25 45 67 63 60 8 -3 20 -1 28 4 11 7 10 9 -6 10 -20 2 -104 5 -106 4z"/>
<path d="M885 1030 l-193 -5 -44 -33 c-24 -18 -60 -40 -80 -50 -21 -9 -38 -22
-38 -28 0 -23 47 -80 80 -96 55 -28 216 -19 313 18 33 12 52 5 27 -11 -6 -4
-25 -36 -44 -72 l-33 -66 -13 49 c-7 27 -15 42 -17 32 -2 -9 3 -33 12 -54 13
-32 14 -46 4 -90 -18 -81 5 -134 57 -134 29 0 99 61 134 119 29 46 40 51 40
17 0 -13 7 -43 15 -67 11 -29 12 -46 5 -53 -5 -5 -10 -20 -10 -33 0 -22 3 -23
95 -23 93 0 95 0 85 21 -16 29 -41 36 -56 15 -18 -26 -97 -19 -103 9 -3 19 -3
19 16 3 55 -49 108 20 138 178 20 100 20 283 1 329 l-15 35 -92 -3 c-50 -1
-178 -4 -284 -7z m160 -22 c88 -1 168 -4 177 -6 41 -10 49 -148 19 -308 -18
-96 -45 -164 -67 -171 -11 -4 -21 14 -51 92 -15 38 -24 49 -39 47 -34 -5 -59
-23 -86 -62 -51 -73 -118 -92 -118 -33 0 44 55 193 71 193 4 0 11 18 17 40 8
31 7 42 -5 51 -18 16 -75 13 -143 -6 -30 -8 -83 -15 -119 -15 -53 0 -70 4 -98
26 -41 31 -42 55 -2 88 70 59 123 77 214 71 39 -3 142 -6 230 -7z"/>
<path d="M770 753 c0 -4 10 -39 22 -78 16 -47 24 -63 26 -47 2 12 8 20 13 17
9 -6 3 35 -12 85 -5 16 -8 19 -8 8 -1 -21 -21 -24 -21 -4 0 8 -4 18 -10 21 -5
3 -10 3 -10 -2z"/>
<path d="M172 738 c-17 -17 -15 -50 4 -74 15 -18 15 -18 5 3 -17 34 -13 59 12
71 14 7 17 11 7 11 -9 1 -21 -4 -28 -11z"/>
<path d="M377 643 c-3 -16 -9 -36 -12 -45 -6 -14 -2 -18 14 -18 12 0 21 5 21
10 0 6 -5 10 -10 10 -7 0 -8 13 -4 35 3 19 4 35 1 35 -2 0 -7 -12 -10 -27z"/>
<path d="M800 565 c-10 -12 -10 -24 -1 -54 11 -40 70 -101 96 -101 7 0 20 -3
29 -6 24 -9 20 29 -5 52 -17 16 -22 16 -30 4 -8 -12 -15 -9 -40 19 -26 28 -30
39 -24 67 6 36 -4 44 -25 19z"/>
<path d="M2323 523 c-50 -20 -50 -33 1 -33 53 0 76 8 76 25 0 19 -41 23 -77 8z"/>
</g>
</svg>
