<?xml version="1.0" standalone="no"?>
<!DOCTYPE svg PUBLIC "-//W3C//DTD SVG 20010904//EN"
 "http://www.w3.org/TR/2001/REC-SVG-20010904/DTD/svg10.dtd">
<svg version="1.0" xmlns="http://www.w3.org/2000/svg"
 width="300.000000pt" height="150.000000pt" viewBox="0 0 300.000000 150.000000"
 preserveAspectRatio="xMidYMid meet">
<metadata>
Created by potrace 1.10, written by Peter Selinger 2001-2011
</metadata>
<g transform="translate(0.000000,150.000000) scale(0.100000,-0.100000)"
fill="#000000" stroke="none">
<path d="M2443 1330 c-123 -41 -223 -77 -223 -80 0 -3 25 -21 56 -39 53 -33
54 -35 37 -51 -10 -10 -79 -72 -153 -140 -74 -68 -140 -129 -146 -137 -10 -11
-34 3 -135 84 -68 54 -137 107 -152 116 l-28 18 -147 -133 c-81 -73 -157 -141
-168 -150 -20 -17 -23 -16 -111 46 -50 35 -100 67 -112 71 -18 5 -47 -14 -154
-100 -130 -104 -132 -106 -172 -99 -71 12 -69 14 -79 -51 -5 -33 -16 -66 -25
-73 -12 -10 -13 -15 -3 -18 17 -8 15 -34 -3 -34 -8 0 -15 -6 -15 -14 0 -7 -9
-25 -21 -40 -18 -23 -19 -28 -6 -46 15 -21 15 -21 35 5 11 14 24 40 27 56 7
30 8 31 55 24 l47 -6 7 39 c5 37 13 45 98 103 51 34 120 82 154 106 l61 43
107 -85 c59 -47 116 -90 127 -96 17 -9 35 4 136 93 63 57 136 121 161 144 l46
41 148 -129 147 -129 221 187 c121 102 220 189 220 193 0 4 -10 17 -23 29
l-23 22 -144 -127 c-80 -69 -176 -153 -213 -185 l-68 -58 -87 80 c-110 100
-150 130 -177 130 -12 0 -26 5 -32 11 -9 9 -51 -25 -163 -130 l-152 -141 -37
32 c-75 68 -171 133 -198 134 -20 0 -72 -30 -182 -108 -227 -159 -214 -125 24
62 124 98 143 110 164 102 9 -3 52 -32 96 -64 43 -32 89 -58 102 -58 20 0 71
38 123 90 8 9 59 55 113 103 88 79 100 86 119 76 12 -7 75 -54 141 -105 65
-52 123 -94 129 -94 18 0 53 24 103 69 27 25 76 71 110 101 96 88 145 137 145
147 0 5 -13 23 -30 39 -36 35 -36 40 -7 47 46 10 309 106 323 117 25 22 17
-11 -46 -170 -70 -177 -70 -176 -81 -159 -4 7 -11 10 -14 7 -4 -4 11 -26 33
-50 22 -23 42 -41 44 -38 3 4 127 313 153 381 4 11 -5 24 -27 40 l-33 24 -222
-75z m152 -215 c-10 -25 -20 -43 -23 -41 -2 3 4 25 13 51 10 25 20 43 23 41 2
-3 -4 -25 -13 -51z m-1746 -401 c2 -2 -8 -13 -22 -26 -33 -30 -45 -83 -21 -92
9 -3 24 -1 32 6 13 11 15 10 9 -5 -4 -10 -7 -23 -7 -29 0 -13 -83 1 -92 15 -4
6 -3 16 1 22 5 5 14 36 21 67 11 57 11 57 43 51 18 -3 34 -7 36 -9z"/>
<path d="M508 951 c-9 -17 -43 -50 -75 -75 -75 -59 -106 -104 -106 -157 0 -45
21 -73 63 -82 23 -6 25 -3 26 30 1 55 46 83 162 100 36 5 47 2 67 -17 29 -27
34 -12 11 32 -13 24 -12 31 5 65 23 45 23 52 3 82 l-17 24 -19 -24 c-17 -22
-19 -22 -14 -3 4 11 0 29 -8 39 -13 18 -14 17 -32 -16 l-18 -34 -6 29 c-7 40
-22 42 -42 7z m105 -59 c13 -12 16 -24 11 -46 -7 -36 -24 -59 -24 -32 0 15 -4
14 -32 -7 -18 -14 -49 -28 -68 -32 -46 -10 -78 -32 -96 -66 -18 -36 -30 -37
-38 -4 -9 37 7 62 87 136 60 57 76 67 106 66 20 0 44 -7 54 -15z"/>
<path d="M667 660 c4 -30 7 -65 6 -77 0 -13 4 -23 9 -23 13 0 3 114 -12 138
-7 12 -8 1 -3 -38z"/>
<path d="M602 669 c1 -13 8 -23 13 -21 15 3 12 35 -3 40 -9 3 -13 -3 -10 -19z"/>
<path d="M490 651 c0 -22 16 -36 24 -22 8 12 -3 41 -15 41 -5 0 -9 -9 -9 -19z"/>
<path d="M373 603 c-7 -2 -13 -11 -13 -19 0 -9 4 -13 9 -10 5 3 8 -2 7 -12 0
-10 7 -18 20 -20 17 -2 21 2 19 20 -1 13 -3 29 -4 36 -1 12 -16 14 -38 5z"/>
<path d="M605 569 c-11 -4 -37 -8 -59 -8 -38 -1 -38 -1 -23 -23 22 -35 78 -32
95 5 16 33 14 37 -13 26z"/>
<path d="M438 529 c5 -13 17 -26 27 -27 23 -5 15 17 -13 36 -21 14 -22 14 -14
-9z"/>
<path d="M609 473 c0 -5 -2 -16 -4 -25 -2 -10 1 -18 6 -18 13 0 11 -34 -3 -49
-11 -10 -10 -11 3 -6 10 4 19 0 22 -8 8 -21 -40 -39 -89 -35 -32 2 -40 7 -42
27 -3 18 0 22 11 18 13 -5 13 -2 2 20 -16 31 -10 47 14 39 9 -4 7 2 -8 14 -13
11 -30 20 -37 20 -23 0 -28 -29 -9 -50 9 -10 14 -24 10 -30 -4 -6 -1 -33 6
-60 12 -47 7 -105 -16 -176 -8 -25 14 -37 51 -28 24 6 24 7 18 90 l-7 84 30 0
c26 0 30 -3 27 -22 -2 -13 -5 -49 -8 -81 -4 -55 -3 -59 21 -68 14 -5 34 -7 45
-3 17 5 18 8 5 27 -17 26 -29 165 -15 173 5 3 7 23 3 44 -6 33 -4 39 14 45 12
3 21 11 21 16 0 13 -18 11 -22 -3 -2 -6 -12 -9 -21 -5 -13 5 -15 11 -7 32 7
20 6 25 -5 25 -8 0 -15 -3 -16 -7z"/>
<path d="M554 435 c1 -33 26 -33 26 0 0 15 -6 25 -14 25 -9 0 -13 -10 -12 -25z"/>
</g>
</svg>
